<svg width="140" height="124" viewBox="0 0 140 124" fill="none" xmlns="http://www.w3.org/2000/svg">
<path d="M19.8203 24.4297V29H5.50391V24.4297H19.8203ZM7.39844 0.5625V29H1.53906V0.5625H7.39844ZM42.2617 24.4297V29H27.125V24.4297H42.2617ZM29.0391 0.5625V29H23.1797V0.5625H29.0391ZM40.2891 12.1445V16.5977H27.125V12.1445H40.2891ZM42.2422 0.5625V5.15234H27.125V0.5625H42.2422ZM57.2422 5.42578L49.5078 29H43.2773L53.8438 0.5625H57.8086L57.2422 5.42578ZM63.668 29L55.9141 5.42578L55.2891 0.5625H59.293L69.918 29H63.668ZM63.3164 18.4141V23.0039H48.2969V18.4141H63.3164ZM72.5547 0.5625H83.1602C85.3346 0.5625 87.2031 0.888021 88.7656 1.53906C90.3411 2.1901 91.5521 3.15365 92.3984 4.42969C93.2448 5.70573 93.668 7.27474 93.668 9.13672C93.668 10.6602 93.4076 11.9688 92.8867 13.0625C92.3789 14.1432 91.6562 15.0482 90.7188 15.7773C89.7943 16.4935 88.707 17.0664 87.457 17.4961L85.6016 18.4727H76.3828L76.3438 13.9023H83.1992C84.2279 13.9023 85.0807 13.7201 85.7578 13.3555C86.4349 12.9909 86.9427 12.4831 87.2812 11.832C87.6328 11.181 87.8086 10.4258 87.8086 9.56641C87.8086 8.65495 87.6393 7.86719 87.3008 7.20312C86.9622 6.53906 86.4479 6.03125 85.7578 5.67969C85.0677 5.32812 84.2018 5.15234 83.1602 5.15234H78.4141V29H72.5547V0.5625ZM88.4531 29L81.9688 16.3242L88.1602 16.2852L94.7227 28.7266V29H88.4531ZM121.324 0.5625V29H115.465L104.039 9.9375V29H98.1797V0.5625H104.039L115.484 19.6445V0.5625H121.324ZM24.8984 61.1172V62.4648C24.8984 64.6263 24.6055 66.5664 24.0195 68.2852C23.4336 70.0039 22.6068 71.4688 21.5391 72.6797C20.4714 73.8776 19.1953 74.7956 17.7109 75.4336C16.2396 76.0716 14.6055 76.3906 12.8086 76.3906C11.0247 76.3906 9.39062 76.0716 7.90625 75.4336C6.4349 74.7956 5.15885 73.8776 4.07812 72.6797C2.9974 71.4688 2.15755 70.0039 1.55859 68.2852C0.972656 66.5664 0.679688 64.6263 0.679688 62.4648V61.1172C0.679688 58.9427 0.972656 57.0026 1.55859 55.2969C2.14453 53.5781 2.97135 52.1133 4.03906 50.9023C5.11979 49.6914 6.39583 48.7669 7.86719 48.1289C9.35156 47.4909 10.9857 47.1719 12.7695 47.1719C14.5664 47.1719 16.2005 47.4909 17.6719 48.1289C19.1562 48.7669 20.4323 49.6914 21.5 50.9023C22.5807 52.1133 23.4141 53.5781 24 55.2969C24.599 57.0026 24.8984 58.9427 24.8984 61.1172ZM18.9805 62.4648V61.0781C18.9805 59.5677 18.8438 58.2396 18.5703 57.0938C18.2969 55.9479 17.8932 54.9844 17.3594 54.2031C16.8255 53.4219 16.1745 52.8359 15.4062 52.4453C14.638 52.0417 13.7591 51.8398 12.7695 51.8398C11.7799 51.8398 10.901 52.0417 10.1328 52.4453C9.3776 52.8359 8.73307 53.4219 8.19922 54.2031C7.67839 54.9844 7.28125 55.9479 7.00781 57.0938C6.73438 58.2396 6.59766 59.5677 6.59766 61.0781V62.4648C6.59766 63.9622 6.73438 65.2904 7.00781 66.4492C7.28125 67.5951 7.6849 68.5651 8.21875 69.3594C8.7526 70.1406 9.40365 70.7331 10.1719 71.1367C10.9401 71.5404 11.819 71.7422 12.8086 71.7422C13.7982 71.7422 14.6771 71.5404 15.4453 71.1367C16.2135 70.7331 16.8581 70.1406 17.3789 69.3594C17.8997 68.5651 18.2969 67.5951 18.5703 66.4492C18.8438 65.2904 18.9805 63.9622 18.9805 62.4648ZM34.9766 47.5625V76H29.1172V47.5625H34.9766ZM46.3047 59.7109V64.2812H33.375V59.7109H46.3047ZM47.6719 47.5625V52.1523H33.375V47.5625H47.6719ZM18.0234 113.566H23.8633C23.7461 115.48 23.2188 117.18 22.2812 118.664C21.3568 120.148 20.0612 121.307 18.3945 122.141C16.7409 122.974 14.7487 123.391 12.418 123.391C10.5951 123.391 8.96094 123.078 7.51562 122.453C6.07031 121.815 4.83333 120.904 3.80469 119.719C2.78906 118.534 2.01432 117.102 1.48047 115.422C0.946615 113.742 0.679688 111.861 0.679688 109.777V107.805C0.679688 105.721 0.953125 103.84 1.5 102.16C2.0599 100.467 2.85417 99.0286 3.88281 97.8438C4.92448 96.6589 6.16797 95.7474 7.61328 95.1094C9.05859 94.4714 10.6732 94.1523 12.457 94.1523C14.8268 94.1523 16.8255 94.582 18.4531 95.4414C20.0938 96.3008 21.3633 97.4857 22.2617 98.9961C23.1732 100.507 23.7201 102.225 23.9023 104.152H18.043C17.9779 103.007 17.75 102.036 17.3594 101.242C16.9688 100.435 16.3763 99.8294 15.582 99.4258C14.8008 99.0091 13.7591 98.8008 12.457 98.8008C11.4805 98.8008 10.6276 98.9831 9.89844 99.3477C9.16927 99.7122 8.55729 100.266 8.0625 101.008C7.56771 101.75 7.19661 102.688 6.94922 103.82C6.71484 104.94 6.59766 106.255 6.59766 107.766V109.777C6.59766 111.249 6.70833 112.544 6.92969 113.664C7.15104 114.771 7.48958 115.708 7.94531 116.477C8.41406 117.232 9.01302 117.805 9.74219 118.195C10.4844 118.573 11.3763 118.762 12.418 118.762C13.6419 118.762 14.651 118.566 15.4453 118.176C16.2396 117.785 16.8451 117.206 17.2617 116.438C17.6914 115.669 17.9453 114.712 18.0234 113.566ZM46.6758 106.145V110.715H31.832V106.145H46.6758ZM33.5703 94.5625V123H27.7109V94.5625H33.5703ZM50.8555 94.5625V123H45.0156V94.5625H50.8555ZM55.9531 94.5625H66.5586C68.7331 94.5625 70.6016 94.888 72.1641 95.5391C73.7396 96.1901 74.9505 97.1536 75.7969 98.4297C76.6432 99.7057 77.0664 101.275 77.0664 103.137C77.0664 104.66 76.806 105.969 76.2852 107.062C75.7773 108.143 75.0547 109.048 74.1172 109.777C73.1927 110.493 72.1055 111.066 70.8555 111.496L69 112.473H59.7812L59.7422 107.902H66.5977C67.6263 107.902 68.4792 107.72 69.1562 107.355C69.8333 106.991 70.3411 106.483 70.6797 105.832C71.0312 105.181 71.207 104.426 71.207 103.566C71.207 102.655 71.0378 101.867 70.6992 101.203C70.3607 100.539 69.8464 100.031 69.1562 99.6797C68.4661 99.3281 67.6003 99.1523 66.5586 99.1523H61.8125V123H55.9531V94.5625ZM71.8516 123L65.3672 110.324L71.5586 110.285L78.1211 122.727V123H71.8516ZM87.8086 94.5625V123H81.9688V94.5625H87.8086ZM108.102 115.559C108.102 115.051 108.023 114.595 107.867 114.191C107.724 113.775 107.451 113.397 107.047 113.059C106.643 112.707 106.077 112.362 105.348 112.023C104.618 111.685 103.674 111.333 102.516 110.969C101.227 110.552 100.003 110.083 98.8438 109.562C97.6979 109.042 96.6823 108.436 95.7969 107.746C94.9245 107.043 94.2344 106.229 93.7266 105.305C93.2318 104.38 92.9844 103.306 92.9844 102.082C92.9844 100.897 93.2448 99.8229 93.7656 98.8594C94.2865 97.8828 95.0156 97.0495 95.9531 96.3594C96.8906 95.6562 97.9974 95.1159 99.2734 94.7383C100.562 94.3607 101.975 94.1719 103.512 94.1719C105.608 94.1719 107.438 94.5495 109 95.3047C110.562 96.0599 111.773 97.0951 112.633 98.4102C113.505 99.7253 113.941 101.229 113.941 102.922H108.121C108.121 102.089 107.945 101.359 107.594 100.734C107.255 100.096 106.734 99.5951 106.031 99.2305C105.341 98.8659 104.469 98.6836 103.414 98.6836C102.398 98.6836 101.552 98.8398 100.875 99.1523C100.198 99.4518 99.6901 99.862 99.3516 100.383C99.013 100.891 98.8438 101.464 98.8438 102.102C98.8438 102.583 98.9609 103.02 99.1953 103.41C99.4427 103.801 99.8073 104.165 100.289 104.504C100.771 104.842 101.363 105.161 102.066 105.461C102.77 105.76 103.583 106.053 104.508 106.34C106.057 106.809 107.418 107.336 108.59 107.922C109.775 108.508 110.764 109.165 111.559 109.895C112.353 110.624 112.952 111.451 113.355 112.375C113.759 113.299 113.961 114.348 113.961 115.52C113.961 116.757 113.72 117.863 113.238 118.84C112.757 119.816 112.06 120.643 111.148 121.32C110.237 121.997 109.15 122.512 107.887 122.863C106.624 123.215 105.211 123.391 103.648 123.391C102.242 123.391 100.855 123.208 99.4883 122.844C98.1211 122.466 96.8776 121.9 95.7578 121.145C94.651 120.389 93.7656 119.426 93.1016 118.254C92.4375 117.082 92.1055 115.695 92.1055 114.094H97.9844C97.9844 114.979 98.1211 115.728 98.3945 116.34C98.668 116.952 99.0521 117.447 99.5469 117.824C100.055 118.202 100.654 118.475 101.344 118.645C102.047 118.814 102.815 118.898 103.648 118.898C104.664 118.898 105.497 118.755 106.148 118.469C106.812 118.182 107.301 117.785 107.613 117.277C107.939 116.77 108.102 116.197 108.102 115.559ZM130.66 94.5625V123H124.82V94.5625H130.66ZM139.41 94.5625V99.1523H116.207V94.5625H139.41Z" fill="black"/>
</svg>
